<svg id="Layer_1" data-name="Layer 1" xmlns="http://www.w3.org/2000/svg" viewBox="0 0 72 72.0625"><defs><style>.cls-1{fill:#0375b6;}</style></defs><title>icon</title><path class="cls-1" d="M0,0V72.0625H72V0ZM22.3672,24.5869A4.712,4.712,0,1,1,27.042,19.875,4.69361,4.69361,0,0,1,22.3672,24.5869Zm3.9902,3.3438V53.4668H18.4531V27.9307Zm5.0537,25.5361V27.9307h7.5811v3.4394a8.90572,8.90572,0,0,1,7.6953-4.2187c5.415,0,9.291,3.3066,9.291,10.1465V53.4668H48.1123V40.0625c0-3.6768-1.3965-5.7285-4.3037-5.7285-3.1631,0-4.8164,2.1377-4.8164,5.7285V53.4668Z"/></svg>