<svg id="Layer_1" data-name="Layer 1" xmlns="http://www.w3.org/2000/svg" viewBox="0 0 72 72.0625"><defs><style>.cls-1{fill:#fff;}.cls-2{fill:#ecb32d;}.cls-3{fill:#63c1a0;}.cls-4{fill:#e01a59;}.cls-5{fill:#331433;}.cls-6{fill:#d62027;}.cls-7{fill:#89d3df;}.cls-8{fill:#258b74;}.cls-9{fill:#819c3c;}</style></defs><title>icon</title><rect class="cls-1" width="72" height="72.0625"/><path class="cls-2" d="M42.45982,16.92691a3.89124,3.89124,0,1,0-7.40428,2.39656L45.10677,50.22831a3.8792,3.8792,0,0,0,4.72157,2.39656,3.81693,3.81693,0,0,0,2.64694-4.79312C52.47528,47.76021,42.45982,16.92691,42.45982,16.92691Z"/><path class="cls-3" d="M26.90009,21.97041A3.89124,3.89124,0,1,0,19.49581,24.367L29.547,55.27181a3.87919,3.87919,0,0,0,4.72157,2.39655,3.81692,3.81692,0,0,0,2.64694-4.79311C36.91555,52.80372,26.90009,21.97041,26.90009,21.97041Z"/><path class="cls-4" d="M55.12222,42.5021a3.89123,3.89123,0,1,0-2.39655-7.40428l-30.94061,10.087a3.87919,3.87919,0,0,0-2.39656,4.72157,3.81691,3.81691,0,0,0,4.79311,2.647C24.25315,52.55333,55.12222,42.5021,55.12222,42.5021Z"/><path class="cls-5" d="M28.22356,51.26563c2.0031-.64386,4.61427-1.50232,7.40429-2.39656-.64385-2.00309-1.50232-4.61426-2.39656-7.40428L25.827,43.86134Z"/><path class="cls-6" d="M43.81906,46.18636c2.79-.89424,5.4012-1.75271,7.40429-2.39656-.64385-2.00309-1.50232-4.61426-2.39656-7.40428l-7.40428,2.39655Z"/><path class="cls-7" d="M50.043,26.94237a3.89124,3.89124,0,1,0-2.39655-7.40429L16.74156,29.58931A3.8792,3.8792,0,0,0,14.345,34.31089a3.81692,3.81692,0,0,0,4.79311,2.64694C19.20965,36.95783,50.043,26.94237,50.043,26.94237Z"/><path class="cls-8" d="M23.18007,35.67013c2.00309-.64385,4.61426-1.50232,7.40428-2.39656-.89424-2.79-1.7527-5.40119-2.39655-7.40429l-7.40429,2.39656Z"/><path class="cls-9" d="M38.73979,30.62663c2.79-.89424,5.4012-1.75271,7.40429-2.39656-.89424-2.79-1.7527-5.40119-2.39655-7.40428l-7.40429,2.39655Z"/></svg>