<svg id="Layer_1" data-name="Layer 1" xmlns="http://www.w3.org/2000/svg" viewBox="0 0 72 72.0625"><defs><style>.cls-1{fill:#ce332d;}</style></defs><title>icon</title><path class="cls-1" d="M72,0H0V72.0625H72ZM16.5156,52.501V38.5723a5.51327,5.51327,0,0,1,5.5127-5.5146H50.3721a5.51391,5.51391,0,0,1,5.5127,5.5146V52.501a5.51186,5.51186,0,0,1-5.5127,5.5137H22.0283A5.51122,5.51122,0,0,1,16.5156,52.501ZM22.291,12.5821h2.7256l1.8682,7.0078,1.7363-7.0078h2.749L28.2197,23.0039v7.1114h-2.709V23.0039ZM43.3154,27.9668c.4698,0,1.1211-.6015,1.416-.9687V17.1817h2.4024V30.1153H44.7314V28.6875a3.80464,3.80464,0,0,1-2.7822,1.6133c-1.2871,0-1.6787-1.0322-1.6787-2.3096V17.1807h2.4053v9.915C42.6758,27.6172,42.7998,27.9668,43.3154,27.9668ZM34.7715,17.0743a3.378,3.378,0,0,1,3.458,3.4765v6.3379a3.29517,3.29517,0,0,1-3.458,3.4668c-2.3301,0-3.5235-1.1875-3.5235-3.4668V20.5508A3.30985,3.30985,0,0,1,34.7715,17.0743Z"/><path class="cls-1" d="M41.5615,41.4151a2.74147,2.74147,0,0,0-2.0361,1.1504v-5.377H37.2119V53.8868h2.3135v-.9454a2.617,2.617,0,0,0,2.1748,1.1016c1.5244,0,2.0947-1.1836,2.0947-2.707V44.502C43.7949,42.8321,43.2383,41.4151,41.5615,41.4151Zm-.123,9.5869a1.396,1.396,0,0,1-.2012.8476.96669.96669,0,0,1-1.1689.126,1.93076,1.93076,0,0,1-.543-.4336V43.8672a1.70659,1.70659,0,0,1,.4726-.376.95335.95335,0,0,1,1.1954.2032,1.5578,1.5578,0,0,1,.2451.9453Z"/><path class="cls-1" d="M32.6885,50.92c-.2783.3505-.9014.9218-1.3477.9218-.4883,0-.6084-.334-.6084-.83V41.5713h-2.291v10.294c0,2.5,1.6953,2.5146,2.9287,1.8066a5.05612,5.05612,0,0,0,1.3184-1.1445v1.3594h2.29V41.5713h-2.29Z"/><polygon class="cls-1" points="28.473 37.189 20.557 37.189 20.557 39.613 23.227 39.613 23.227 53.887 25.806 53.887 25.806 39.613 28.473 39.613 28.473 37.189"/><path class="cls-1" d="M52.2598,50.4112v-.9268H49.9033v.8565c0,1.0722-.0566,1.7226-1.0234,1.7226-.9229,0-1-.7969-1-1.7226V48.0166h4.3799V44.8819c0-2.2266-1.0635-3.6231-3.2598-3.6231a3.38549,3.38549,0,0,0-3.4775,3.6231v5.5293c0,2.2168,1.1171,3.8095,3.3046,3.8095C51.2402,54.2207,52.2598,52.7832,52.2598,50.4112Zm-4.3799-5.5518c0-.8467.1738-1.4443,1.0224-1.4443.8223,0,1.001.6103,1.001,1.4443v1.2461H47.8799Z"/><path class="cls-1" d="M34.7715,28.0039c.6484,0,1.0068-.5205,1.0068-1.2246V20.7618c0-.7227-.3154-1.2325-1.0527-1.2325-.6758,0-1.002.5264-1.002,1.2325v6.0175A1.09148,1.09148,0,0,0,34.7715,28.0039Z"/></svg>