<svg id="Layer_1" data-name="Layer 1" xmlns="http://www.w3.org/2000/svg" viewBox="0 0 72 72.0625"><defs><style>.cls-1{fill:#333;}.cls-2{fill:#fff;fill-rule:evenodd;}</style></defs><title>icon</title><path class="cls-1" d="M72,0H0V72.0625H72Z"/><path class="cls-2" d="M35.62729,19.01239a18.00171,18.00171,0,0,0-5.68844,35.08008c.9.16509,1.22854-.39062,1.22854-.86765,0-.4273-.01558-1.55927-.02431-3.06141-5.007,1.08777-6.06348-2.41288-6.06348-2.41288a4.76655,4.76655,0,0,0-1.99851-2.633c-1.6343-1.11683.12365-1.09418.12365-1.09418a3.781,3.781,0,0,1,2.75709,1.855,3.83247,3.83247,0,0,0,5.23849,1.49562,3.846,3.846,0,0,1,1.14279-2.40636c-3.997-.45427-8.199-1.99851-8.199-8.89616a6.9577,6.9577,0,0,1,1.85276-4.83008,6.47416,6.47416,0,0,1,.17647-4.76366s1.51131-.484,4.94986,1.84524a17.06134,17.06134,0,0,1,9.01262,0c3.43645-2.32923,4.945-1.84524,4.945-1.84524a6.46515,6.46515,0,0,1,.17912,4.76366,6.94589,6.94589,0,0,1,1.85022,4.83008c0,6.91489-4.20852,8.43648-8.21846,8.88212a4.296,4.296,0,0,1,1.222,3.33336c0,2.40636-.0221,4.34774-.0221,4.93792,0,.48134.32421,1.04136,1.23771.86555a18.00268,18.00268,0,0,0-5.702-35.078Z"/></svg>