<svg id="Layer_1" data-name="Layer 1" xmlns="http://www.w3.org/2000/svg" viewBox="0 0 72 72.0625"><defs><style>.cls-1{fill:#4dc8f1;}</style></defs><title>icon</title><path class="cls-1" d="M72,0H0V72.0625H72ZM30.4375,54.69727a23.63314,23.63314,0,0,1-12.7988-3.752A16.785,16.785,0,0,0,30,47.4873a8.35524,8.35524,0,0,1-7.7988-5.7978,8.36826,8.36826,0,0,0,3.7695-.1426,8.36047,8.36047,0,0,1-6.6973-8.293,8.321,8.321,0,0,0,3.7832,1.044,8.35864,8.35864,0,0,1-2.5839-11.1475A23.70209,23.70209,0,0,0,37.6816,31.875a8.35527,8.35527,0,0,1,14.2286-7.6162,16.70445,16.70445,0,0,0,5.3017-2.0264,8.36784,8.36784,0,0,1-3.6709,4.6192,16.68394,16.68394,0,0,0,4.7959-1.3145,16.956,16.956,0,0,1-4.166,4.3223C54.6982,41.6035,45.9404,54.69727,30.4375,54.69727Z"/></svg>